<svg width="100" height="100" viewBox="0 0 100 100" fill="none" xmlns="http://www.w3.org/2000/svg">
<path d="M12.16 33.32H18.976V33.8H18.736C18.48 33.8 18.256 33.896 18.064 34.088C17.872 34.248 17.696 34.456 17.536 34.712C17.408 34.968 17.312 35.24 17.248 35.528C17.184 35.816 17.152 36.072 17.152 36.296V55.256C17.152 56.504 17.28 57.656 17.536 58.712C17.792 59.768 18.224 60.68 18.832 61.448C19.44 62.216 20.24 62.824 21.232 63.272C22.224 63.688 23.44 63.896 24.88 63.896C26.48 63.896 27.76 63.64 28.72 63.128C29.68 62.616 30.416 61.96 30.928 61.16C31.44 60.328 31.776 59.4 31.936 58.376C32.096 57.352 32.176 56.344 32.176 55.352V36.296C32.176 36.072 32.144 35.816 32.08 35.528C32.016 35.24 31.904 34.968 31.744 34.712C31.616 34.456 31.456 34.248 31.264 34.088C31.072 33.896 30.864 33.8 30.64 33.8H30.4V33.32H35.632V33.8H35.392C35.136 33.8 34.912 33.896 34.72 34.088C34.56 34.248 34.4 34.456 34.24 34.712C34.112 34.968 34.016 35.24 33.952 35.528C33.888 35.816 33.856 36.072 33.856 36.296V55.208C33.856 57.288 33.6 59 33.088 60.344C32.576 61.656 31.872 62.696 30.976 63.464C30.08 64.232 29.024 64.76 27.808 65.048C26.624 65.336 25.36 65.48 24.016 65.48C22.576 65.48 21.232 65.32 19.984 65C18.768 64.712 17.712 64.184 16.816 63.416C15.92 62.648 15.216 61.608 14.704 60.296C14.192 58.952 13.936 57.272 13.936 55.256V36.296C13.936 36.072 13.904 35.816 13.84 35.528C13.776 35.24 13.664 34.968 13.504 34.712C13.376 34.456 13.216 34.248 13.024 34.088C12.832 33.896 12.624 33.8 12.4 33.8H12.16V33.32ZM63.5913 62.04C64.1513 62.52 64.6846 62.9467 65.1913 63.32C65.6446 63.64 66.1113 63.9333 66.5913 64.2C67.0713 64.4667 67.4979 64.6 67.8713 64.6V65H65.6313C64.6179 65 63.7246 64.8133 62.9513 64.44C62.1779 64.04 61.4446 63.5733 60.7513 63.04L56.7913 59.92C55.3513 61.8667 53.8579 63.2667 52.3113 64.12C50.7913 64.9467 49.0979 65.36 47.2313 65.36C46.0313 65.36 44.9513 65.1867 43.9913 64.84C43.0579 64.4667 42.2579 63.9867 41.5913 63.4C40.9513 62.7867 40.4579 62.08 40.1113 61.28C39.7646 60.48 39.5913 59.6533 39.5913 58.8C39.5913 56.96 40.0579 55.4 40.9913 54.12C41.9246 52.8133 43.4846 51.64 45.6713 50.6C44.3913 49.5333 43.4046 48.48 42.7113 47.44C42.0179 46.4 41.6713 45.32 41.6713 44.2C41.6713 43.4267 41.8179 42.6933 42.1113 42C42.4046 41.3067 42.8179 40.7067 43.3513 40.2C43.8846 39.6667 44.4979 39.2533 45.1913 38.96C45.9113 38.64 46.6979 38.48 47.5513 38.48C48.5646 38.48 49.4579 38.6533 50.2313 39C51.0046 39.3467 51.6579 39.8 52.1913 40.36C52.7246 40.92 53.1246 41.5733 53.3913 42.32C53.6579 43.04 53.7913 43.7733 53.7913 44.52C53.7913 45.5067 53.4846 46.5333 52.8713 47.6C52.2579 48.6667 51.1913 49.64 49.6713 50.52C50.8979 51.5333 52.1646 52.5867 53.4713 53.68C54.7779 54.7733 56.0713 55.8267 57.3513 56.84C57.8846 55.7733 58.3113 54.7067 58.6313 53.64C58.9779 52.5733 59.2446 51.6 59.4313 50.72C59.6446 49.8133 59.7779 49.0267 59.8313 48.36C59.9113 47.6933 59.9513 47.2133 59.9513 46.92C59.9513 46.5733 59.8179 46.2667 59.5513 46C59.2846 45.7067 58.9913 45.56 58.6713 45.56V45.16H62.7913V45.56C62.5246 45.56 62.2446 45.6933 61.9513 45.96C61.6846 46.2 61.5246 46.5067 61.4713 46.88C61.3113 48.2667 61.0846 49.6133 60.7913 50.92C60.5513 52.04 60.2313 53.2133 59.8313 54.44C59.4313 55.6667 58.9379 56.7333 58.3513 57.64C58.8846 58.1467 59.4579 58.6533 60.0712 59.16C60.6846 59.6667 61.2846 60.16 61.8713 60.64L63.5913 62.04ZM44.1513 44.08C44.3379 45.0133 44.8579 45.9333 45.7113 46.84C46.5646 47.7467 47.4846 48.6133 48.4713 49.44C49.5113 49.0133 50.3113 48.3733 50.8713 47.52C51.4313 46.64 51.7113 45.7867 51.7113 44.96C51.7113 44.32 51.6046 43.6933 51.3913 43.08C51.2046 42.4667 50.9113 41.92 50.5113 41.44C50.1379 40.9333 49.6446 40.5333 49.0313 40.24C48.4446 39.92 47.7513 39.76 46.9513 39.76C46.0713 39.76 45.3646 40.1067 44.8313 40.8C44.3246 41.4933 44.0713 42.32 44.0713 43.28C44.0713 43.4133 44.0713 43.5467 44.0713 43.68C44.0713 43.8133 44.0979 43.9467 44.1513 44.08ZM48.3913 63.96C49.6979 63.96 50.9913 63.5067 52.2713 62.6C53.5779 61.6933 54.7646 60.52 55.8313 59.08C54.3646 57.8533 52.8713 56.6133 51.3513 55.36C49.8313 54.08 48.3379 52.84 46.8713 51.64C45.2446 52.4133 44.0446 53.3733 43.2713 54.52C42.4979 55.6667 42.1113 56.8267 42.1113 58C42.1113 58.72 42.2713 59.4267 42.5913 60.12C42.9113 60.8133 43.3513 61.44 43.9112 62C44.4713 62.56 45.1379 63.0267 45.9113 63.4C46.6846 63.7467 47.5113 63.9333 48.3913 63.96ZM77.5664 64.52H77.8064V65H70.9424V64.52H71.1824C71.4384 64.52 71.6624 64.44 71.8544 64.28C72.0464 64.088 72.2064 63.864 72.3344 63.608C72.4944 63.352 72.6064 63.08 72.6704 62.792C72.7344 62.504 72.7664 62.232 72.7664 61.976V36.296C72.7664 36.072 72.7344 35.816 72.6704 35.528C72.6064 35.24 72.5104 34.968 72.3824 34.712C72.2544 34.456 72.0784 34.248 71.8544 34.088C71.6624 33.896 71.4384 33.8 71.1824 33.8H70.9424V33.32H89.3744V37.784H88.8944C88.8944 37.048 88.6384 36.408 88.1264 35.864C87.6464 35.288 86.8784 35 85.8224 35H75.9824V47.144H83.9504C84.6864 47.144 85.2944 46.92 85.7744 46.472C86.2864 46.024 86.5424 45.496 86.5424 44.888H87.0224V50.888H86.5424C86.5424 50.312 86.3024 49.816 85.8224 49.4C85.3424 48.984 84.7184 48.776 83.9504 48.776H75.9824V61.976C75.9824 62.232 76.0144 62.504 76.0784 62.792C76.1424 63.08 76.2384 63.352 76.3664 63.608C76.5264 63.864 76.7024 64.088 76.8944 64.28C77.0864 64.44 77.3104 64.52 77.5664 64.52Z" fill="white"/>
</svg>
